# xmcd CD database file
#
# Track frame offsets:
#	150
#	42977
#	65705
#	93780
#	121728
#	150502
#	187431
#	218133
#	240722
#	270763
#
# Disc length: 3920 seconds
#
# Revision: 0
# Processed by: cddbd v1.5.2PL0 Copyright (c) Steve Scherf et al.
# Submitted via: CDex 1.51
#
DISCID=850f4e0a
DTITLE=Bob Holroyd - RE: Act
DYEAR=2009
DGENRE=New Age
TTITLE0=African Drug (Coldcut Dagger Mix)
TTITLE1=Will You (Nitin Sawhney Gloom World Remix)
TTITLE2=Reconfluenced
TTITLE3=Xlao Tshao Khoi San (BH Pulse Mix)
TTITLE4=When The Monsoons Came
TTITLE5=Drumming Up A Storm (Romanthony Organic Mix)
TTITLE6=Will You (Fredéric Galliano Remix)
TTITLE7=Drumming Up A Storm (dZhihan and Kamien Dub Mix)
TTITLE8=Rafiki (Shur I Kan Party Mix)
TTITLE9=Re-Awakening The Spirits
EXTD=YEAR: 2009
EXTT0=
EXTT1=
EXTT2=
EXTT3=
EXTT4=
EXTT5=
EXTT6=
EXTT7=
EXTT8=
EXTT9=
PLAYORDER=
